<svg xmlns="http://www.w3.org/2000/svg" xmlns:xlink="http://www.w3.org/1999/xlink" viewBox="0 0 358.67 61.65"><defs><style>.cls-1{fill:url(#linear-gradient);}.cls-2{fill:url(#linear-gradient-2);}.cls-3{fill:url(#linear-gradient-3);}.cls-4{fill:url(#linear-gradient-4);}.cls-5{fill:url(#linear-gradient-5);}.cls-6{fill:url(#linear-gradient-6);}.cls-7{fill:url(#linear-gradient-7);}</style><linearGradient id="linear-gradient" x1="32.35" y1="-10.79" x2="32.35" y2="19.36" gradientUnits="userSpaceOnUse"><stop offset="0" stop-color="#f26d22"/><stop offset="0.95" stop-color="#fce82d"/><stop offset="1" stop-color="#fdee2e"/></linearGradient><linearGradient id="linear-gradient-2" x1="15.65" y1="81.39" x2="15.65" y2="-11.62" gradientUnits="userSpaceOnUse"><stop offset="0" stop-color="#272476"/><stop offset="0.21" stop-color="#0b6db5"/><stop offset="1" stop-color="#24c3ef"/></linearGradient><linearGradient id="linear-gradient-3" x1="49.05" y1="81.39" x2="49.05" y2="-11.62" xlink:href="#linear-gradient-2"/><linearGradient id="linear-gradient-4" x1="112.13" y1="81.39" x2="112.13" y2="-11.62" xlink:href="#linear-gradient-2"/><linearGradient id="linear-gradient-5" x1="183.25" y1="81.39" x2="183.25" y2="-11.62" xlink:href="#linear-gradient-2"/><linearGradient id="linear-gradient-6" x1="254.36" y1="81.39" x2="254.36" y2="-11.62" xlink:href="#linear-gradient-2"/><linearGradient id="linear-gradient-7" x1="325.48" y1="81.39" x2="325.48" y2="-11.62" xlink:href="#linear-gradient-2"/></defs><g id="Layer_2" data-name="Layer 2"><g id="Layer_1-2" data-name="Layer 1"><path class="cls-1" d="M62.78,2.39,60.39,0H4.31L1.92,2.39l28,14.88,0,0a4.53,4.53,0,0,1,2.42-.69h0a4.57,4.57,0,0,1,2.43.7h0Z"/><path class="cls-2" d="M31.3,56.91,30.2,25.23h0a4.69,4.69,0,0,1-1.83-1.76,4.64,4.64,0,0,1-.62-2.31.71.71,0,0,1,0-.14v0L.88,4.2,0,7.47,12.5,29.13,14,31.76l1.52,2.62L28,56Z"/><path class="cls-3" d="M64.71,7.47l-.88-3.26L36.94,21v.15a4.58,4.58,0,0,1-2.43,4.06h0L33.4,56.91,36.67,56l12.5-21.66,1.52-2.63,1.51-2.62Z"/><path class="cls-4" d="M98.72,23.72l-5.5,9.48h52.1V9.49H78.94V47.42h60.9L145.32,38v0H88.43V19h47.41v4.74Z"/><path class="cls-5" d="M159.54,37.94V19h51.4l5.5-9.49H150.06V47.42h60.8l5.5-9.48Z"/><path class="cls-6" d="M278.07,23.72V37.94H230.66V19h51.39l5.5-9.49H221.17V47.42h56.9v4.75h-51.4l-5.5,9.48h66.38V23.72Z"/><path class="cls-7" d="M320.74,23.72v23.7h9.48V23.72Zm-28.45,0v23.7h9.49V23.72Zm5.5-14.23L292.29,19h56.89V47.42h9.49V9.49Z"/></g></g></svg>